<?xml version="1.0" encoding="UTF-8" standalone="no"?>
<svg width="307px" height="350px" viewBox="0 0 307 350" version="1.1" xmlns="http://www.w3.org/2000/svg" xmlns:xlink="http://www.w3.org/1999/xlink" xmlns:sketch="http://www.bohemiancoding.com/sketch/ns">
    <!-- Generator: Sketch 3.3.2 (12043) - http://www.bohemiancoding.com/sketch -->
    <title>logo</title>
    <desc>Created with Sketch.</desc>
    <defs></defs>
    <g id="Page-1" stroke="none" stroke-width="1" fill="none" fill-rule="evenodd" sketch:type="MSPage">
        <g id="logo" sketch:type="MSLayerGroup" transform="translate(4.000000, 2.000000)">
            <path d="M0,85 L149,0 L298,85 L299,257 L150,342 L0,257 L0,85 Z" id="template_outline" fill="#F3DF49" sketch:type="MSShapeGroup"></path>
            <path d="M115.486802,271.69169 C115.486802,271.69169 126.428437,270.279869 135.605293,274.515337 C144.782148,278.750819 146.193965,279.456725 146.193965,279.456725 C146.193965,279.456725 152.900131,281.574466 163.488803,277.338984 C174.07749,273.103516 174.783405,274.868295 180.430675,266.397354 C186.07795,257.926418 189.254573,255.808682 199.137363,255.455729 C209.020134,255.102772 209.373092,255.455729 212.196758,253.690951 C215.020419,251.926172 228.785728,231.454729 236.550749,228.984035 C244.31577,226.513346 255.257413,226.513346 256.669244,224.395604 C258.081075,222.277863 260.551726,215.924659 264.434265,214.865791 C268.316803,213.806928 268.669761,215.924659 269.375619,208.865549 C270.081534,201.80643 275.022951,198.276868 275.022951,198.276868 C275.022951,198.276868 271.846327,196.159141 270.434492,194.74731 C269.022662,193.335489 266.904973,189.805927 266.904973,189.805927 C266.904973,189.805927 269.022662,190.511842 271.49337,192.982532 C273.964073,195.453221 272.552243,195.453221 275.022951,195.100273 C277.493654,194.74731 281.023178,194.394353 280.670221,192.276621 C280.317263,190.158885 280.317263,189.100017 282.787967,187.688196 C285.258675,186.27637 282.435009,186.629327 282.435009,186.629327 L280.670221,185.923417 C280.670221,185.923417 286.317552,186.629327 286.317552,184.864549 C286.317552,183.09977 279.876665,180.987382 279.876665,180.987382 C279.876665,180.987382 287.80074,182.297667 287.80074,180.363436 C287.80074,178.42921 286.740044,179.926673 285.679344,179.177944 C284.618592,178.42921 282.746766,176.744563 281.062148,176.120621 C279.377473,175.496675 273.637214,175.247095 278.628763,173.188081 C283.620316,171.129072 283.433109,176.557379 286.67762,176.245404 C289.92213,175.933433 290.73326,172.064985 290.858043,171.81541 C290.982826,171.565826 290.670898,171.75301 291.170033,171.378647 C291.669173,171.00428 290.670898,166.324702 290.670898,166.324702 C290.670898,166.324702 289.485358,169.257233 288.674228,168.820479 C287.863102,168.383716 288.112729,163.891317 288.112729,163.891317 C288.112729,163.891317 282.497196,163.516955 279.377473,164.078501 C276.257745,164.640056 286.42805,163.204984 286.92719,162.393854 C287.426387,161.582733 288.986218,159.960478 288.3623,158.962164 C287.738315,157.963856 287.738315,157.402305 285.741707,157.339909 C283.745099,157.277518 280.750158,157.402305 280.750158,157.402305 C280.750158,157.402305 284.244239,156.279209 284.431441,155.655262 C284.618592,155.031316 281.935636,154.344978 283.620316,153.658645 C285.304934,152.972307 285.804131,152.098786 286.053697,149.291038 C286.303267,146.48329 286.11606,146.545682 286.552837,145.734561 C286.98961,144.923431 286.864827,144.736248 285.928914,143.987514 C284.993001,143.238784 284.805794,141.616529 283.620316,142.240476 C282.434833,142.864413 281.249294,142.490055 280.313381,140.61822 C279.377473,138.74639 280.874941,138.060052 277.88,138.372023 C274.885117,138.683994 272.950871,138.683994 269.207221,135.751459 C265.463574,132.818924 266.337063,132.007799 266.586633,130.447939 C266.836203,128.888075 267.085768,128.388921 266.399487,128.32653 C265.71314,128.264133 263.279759,130.011176 261.844649,130.19836 C260.409601,130.385543 259.473688,130.635123 257.539443,131.695823 C255.605255,132.756528 253.296657,133.692445 254.856492,131.134277 C256.416385,128.576104 253.42144,128.451322 255.355628,126.329907 C257.289873,124.208497 259.411269,121.775122 258.974553,119.216949 C258.537776,116.658781 256.853101,111.729628 255.605255,112.478357 C254.357352,113.227086 253.733373,115.598076 251.736764,114.724554 C249.740156,113.851033 250.301716,114.225395 248.866663,114.163004 C247.431558,114.100613 247.306771,113.788642 247.244408,112.478357 C247.181988,111.168073 247.743548,110.980894 246.370858,110.793711 C244.998173,110.606527 242.128077,110.606527 246.183656,108.048354 C250.239292,105.490186 250.052146,104.055119 250.052146,103.493564 C250.052146,102.932018 247.306771,100.561034 248.929026,99.1259617 C250.551282,97.6908851 251.549619,97.8780733 253.67101,96.3806102 C255.792405,94.883147 259.660896,93.0113073 258.03864,92.948916 C256.416385,92.8865246 253.983,93.5104617 252.922304,93.1360995 C251.861547,92.7617325 251.300049,92.2625781 248.741824,94.3215917 C246.183656,96.3806102 248.429891,97.066948 245.684516,99.0635656 C242.939202,101.060188 239.445064,100.997792 239.445064,100.997792 C239.445064,100.997792 240.630604,107.486809 239.070712,106.987649 C237.510876,106.488495 235.264641,103.743148 233.704805,103.743148 C232.144975,103.743148 230.772284,103.743148 230.709865,103.05681 C230.647502,102.370463 231.084217,101.621734 230.460295,101.496946 C229.836372,101.372159 228.463687,102.120893 229.898735,98.6268073 C231.333844,95.132717 231.146637,94.6335627 229.836372,93.2608916 C228.526049,91.8882158 224.595253,91.6386315 224.595253,91.6386315 C224.595253,91.6386315 224.969606,86.397508 222.661008,85.8359623 C220.35241,85.274407 220.28999,84.1513061 217.419889,86.1479284 C214.549674,88.144546 215.859996,88.0197633 214.050534,87.6453916 C212.241071,87.2710294 212.178708,86.2103245 210.43167,86.8966624 C208.684632,87.5830003 208.996561,87.5830003 208.996561,88.3317295 C208.996561,89.0804682 210.306826,91.3266606 210.306826,92.6993411 C210.306826,94.0720169 210.43167,95.5694801 211.055593,97.5661024 C211.679516,99.5627248 213.676181,102.994409 211.305163,105.67737 C208.934198,108.360325 203.817866,110.856102 202.008404,110.793711 C200.198941,110.731319 199.824588,106.176524 196.892044,106.613287 C193.959523,107.05005 193.273181,105.303003 191.838071,110.356948 C190.403023,115.410897 190.964583,112.166386 190.777375,113.289483 C190.59023,114.412584 189.7791,119.840895 185.848246,119.716103 C181.917393,119.59132 182.042176,118.21864 181.043843,115.785259 C180.045568,113.351879 176.92584,110.793711 174.242889,110.23216 C171.559938,109.67061 167.129945,108.11075 166.443602,109.483426 C165.757259,110.856102 166.194032,116.34681 166.755592,118.093853 C167.31709,119.840895 168.939346,121.026388 168.939346,123.52216 C168.939346,126.017936 170.187248,125.643574 170.000103,125.082019 C169.812895,124.520473 170.436818,124.208497 170.748808,125.206811 C171.060798,126.20512 172.433426,128.201737 172.495851,132.631745 C172.558214,137.061739 172.994986,139.495124 172.620634,139.682307 C172.246281,139.869491 170.000103,134.253991 169.56333,131.820615 C169.126553,129.38723 169.06419,128.264133 167.691505,127.390612 C166.318819,126.517091 167.31709,124.021314 164.821347,122.898218 C162.325541,121.775122 160.82813,121.40075 160.82813,121.40075 C160.82813,121.40075 161.202483,113.476666 158.769098,112.228782 C156.335717,110.980894 159.018668,111.729628 157.333993,110.294556 C155.649375,108.85948 154.775853,110.731319 154.775853,110.731319 C154.775853,110.731319 155.524587,108.85948 154.463878,108.235543 C153.403177,107.611596 153.278385,106.925258 152.092893,108.984272 C150.907401,111.043285 150.720217,111.043285 150.720217,111.043285 C150.720217,111.043285 151.156975,107.923567 150.158667,108.11075 C149.160358,108.297934 147.163736,110.169764 146.789369,110.980894 C146.415006,111.792019 146.664581,114.662158 143.981621,114.724554 C141.298665,114.78695 138.178947,114.599767 138.05416,117.657089 C137.929367,120.714412 138.990072,119.653712 137.430213,120.776813 C135.870354,121.899904 135.683175,120.776813 136.931059,123.771744 C138.178947,126.76667 138.802889,126.579482 139.17726,130.011176 C139.551623,133.44287 138.740497,135.00273 137.180638,135.065121 C135.620774,135.127517 135.495991,133.692445 135.12162,134.1916 C134.747257,134.690754 132.563452,135.314701 132.189089,134.004416 C131.814722,132.694136 131.12838,127.889766 129.942888,127.078641 C128.757395,126.267516 127.384719,126.76667 126.823174,125.581173 C126.261618,124.395681 124.51458,120.527228 123.578663,118.093853 C122.64275,115.660472 121.644437,111.292865 119.023873,111.792019 C116.403308,112.291174 112.909223,112.727932 112.597252,116.596389 C112.285281,120.464837 115.841763,127.265829 115.779367,133.068499 C115.716971,138.871177 116.528101,142.614838 110.850209,143.550755 C105.172323,144.486668 107.418515,142.490055 106.919361,140.61822 C106.420216,138.74639 106.482607,136.812164 102.052604,141.741321 C97.6226059,146.670474 97.4978137,149.790192 97.8097894,152.098786 C98.1217603,154.407379 99.1824652,158.650194 98.6209147,158.712585 C98.0593642,158.774986 95.8755584,152.285969 95.5011962,152.473153 C95.1268292,152.660331 94.8148583,151.786815 94.8148583,153.658645 C94.8148583,155.530475 94.8148583,165.700756 94.2533125,165.763157 C93.6917573,165.825548 92.9430281,165.388785 92.0695067,160.33484 C91.1959806,155.2809 90.8840097,152.285969 90.0104883,151.724414 C89.1369717,151.162868 89.2617591,150.788501 87.8266872,151.53723 C86.3916201,152.285969 86.2044319,151.973993 87.9514746,149.727801 C89.6985174,147.481599 90.5096427,143.550755 89.1369717,143.051601 C87.7642959,142.552446 86.0796445,144.486668 86.0796445,144.486668 C86.0796445,144.486668 89.0433799,141.554138 86.5164028,140.930191 C83.9894351,140.306249 80.8073205,140.649416 80.2145744,136.968152 C79.6218282,133.286883 81.5872501,136.09463 83.1159137,136.749768 C84.6445726,137.404915 86.5788036,137.498502 87.4835207,136.001038 C88.3882377,134.503575 89.199363,133.754837 87.077958,132.725332 C84.9565483,131.695823 86.7659823,132.413361 87.7642959,131.664627 C88.7626047,130.915898 90.2600679,129.480821 90.6032344,127.109837 C90.9464058,124.738852 91.695135,123.272585 89.7609135,122.305472 C87.8266872,121.338358 88.3258416,122.180684 87.077958,121.43195 C85.8300649,120.683221 86.7347867,120.496033 85.1125313,120.652021 C83.4902807,120.808004 85.2685192,120.059274 87.3899289,119.59132 C89.5113339,119.123357 90.38486,119.123357 89.0121795,117.313918 C87.6395037,115.504489 87.3899289,117.532302 86.3604197,117.220326 C85.3309105,116.90836 83.7086599,116.128426 84.7693648,115.504489 C85.8300649,114.880542 85.6740818,114.007021 84.6445726,113.383074 C83.6150634,112.759132 82.7727424,113.133495 82.647955,114.47498 C82.5231629,115.816455 82.3047884,116.533989 81.9928128,116.409206 C81.6808419,116.284414 82.7727424,114.443779 81.4936584,114.537371 C80.2145744,114.630963 79.9649948,114.131804 80.1209826,113.476666 C80.2769657,112.821529 80.24577,111.105681 79.9026035,110.918498 C79.5594321,110.731319 79.9026035,110.388148 80.1209826,109.920189 C80.3393618,109.452226 80.2769657,107.82998 78.9042947,106.987649 C77.5316189,106.145328 77.0948558,106.457299 75.9717549,105.209411 C74.8486587,103.961523 73.9751325,105.053428 73.9751325,105.053428 C73.9751325,105.053428 75.5349966,103.555965 75.0670378,102.807226 C74.5990791,102.058497 73.9439416,101.652934 73.0080242,101.559342 C72.0721067,101.465751 71.8225319,100.217862 71.5105562,100.966596 C71.1985853,101.715325 69.85711,102.744835 69.9195013,101.746526 C69.9818926,100.748217 70.2938683,100.405046 69.1707721,100.841809 C68.0476711,101.278562 68.6092168,99.6875074 68.7964003,98.2524403 C68.9835838,96.8173685 69.4515473,96.6613854 68.4532338,96.4742019 C67.454925,96.2870184 67.922879,96.0998302 67.9540794,95.6630719 C67.9853083,95.2263088 67.0493623,94.6335627 66.9245702,94.1344083 C66.7997827,93.6352539 66.6125993,93.8224373 66.0198531,93.385679 C65.427107,92.948916 65.7702783,91.9818076 65.1151313,91.6386315 C64.4599938,91.2954697 63.461685,89.7980018 63.1185137,91.0458854 C62.7753424,92.2937785 61.6834419,89.9227892 60.997104,89.4860309 C60.3107661,89.0492678 59.2500612,87.6453916 58.9380903,89.2052556 C58.6261194,90.7651149 58.2517524,90.2971562 57.8149894,90.8899023 C57.378231,91.4826484 56.6606975,91.1706775 55.4440048,89.8915935 C54.2273121,88.6125095 52.1371028,86.8030706 51.575557,87.9885629 C51.0140066,89.1740552 51.0140066,89.3924391 49.0797803,89.5796226 C47.145554,89.7668013 45.9912574,89.4860309 46.9583706,91.201878 C47.9254884,92.9177156 48.5806259,94.0408165 47.7694959,94.4463839 C46.9583706,94.8519466 45.9912574,94.4463839 45.33612,94.2904008 C44.6809777,94.1344083 43.5578768,94.5087752 45.3048911,95.8502553 C47.0519291,97.1917307 48.2062257,97.8468777 49.5477058,97.6596942 C50.8891859,97.4725107 53.8841123,94.5711713 54.0401001,94.883147 C54.1960832,95.1951179 52.4802456,96.7237767 53.4785544,97.0045472 C54.4768632,97.2853272 54.8200298,97.1917307 55.3191842,96.8173685 C55.8183386,96.4430015 57.128623,95.6630719 56.9102391,97.098139 C56.6918599,98.5332156 56.6294639,98.7827904 58.3141153,98.9075778 C59.998762,99.03237 61.277846,98.0340564 61.277846,98.5644112 C61.277846,99.0947613 59.5308032,100.37385 59.9675616,100.529833 C60.4043246,100.685816 63.4616471,100.217862 62.9001013,100.654625 C62.3385556,101.091384 60.903479,101.528142 60.6538994,101.840118 C60.4043246,102.152089 59.8739698,103.181593 59.7179867,102.682439 C59.5619989,102.183284 55.100805,100.311454 53.5721461,100.467442 C52.0434825,100.623425 51.2323525,101.434555 50.4836233,101.528142 C49.7348893,101.621734 48.4558053,102.651243 49.5477058,104.055119 C50.6396063,105.458986 52.9794,107.5492 55.3191842,108.516318 C57.6589731,109.483426 55.6935511,110.200964 56.9414395,109.951385 C58.1893231,109.70181 57.7837605,110.481735 58.5324944,110.918498 C59.2812237,111.355256 60.2795372,112.197582 61.1842543,112.166386 C62.0889713,112.135157 63.1808766,111.854411 62.0577756,112.696736 C60.9346794,113.539057 60.903479,115.348496 61.5586212,115.53568 C62.2137635,115.722863 63.9608015,120.963991 63.4304562,122.648643 C62.9001013,124.33329 60.7786916,128.763288 61.3714377,126.267516 C61.9641839,123.771744 62.3073552,120.121666 60.8098873,120.308849 C59.3124241,120.496033 58.251724,122.555051 58.407707,121.213566 C58.5636901,119.872091 56.5358769,113.44547 54.6952376,114.131804 C52.8546078,114.818141 52.8546078,120.558429 52.6674243,118.998574 C52.4802456,117.43871 52.4802456,115.660472 50.9515773,117.594698 C49.4229137,119.52892 51.7315069,115.972443 50.8891859,115.161313 C50.0468602,114.350187 48.9861601,114.818141 48.3934139,115.317301 C47.800663,115.816455 48.8925683,114.163004 48.7053801,113.071103 C48.5181966,111.979203 48.6741512,109.733006 46.8647456,110.668918 C45.0553115,111.604836 46.2096081,109.920189 44.8057367,108.048354 C43.4018605,106.176524 40.6565042,103.275185 38.2231278,103.680747 C35.7897424,104.08631 33.4499582,104.679056 34.1986875,106.23892 C34.9474214,107.798779 39.0030574,107.798779 35.0098128,107.362016 C31.0165728,106.925258 31.7341111,108.672301 32.9508038,110.169764 C34.167487,111.667227 39.0654488,115.192513 36.1641094,114.038217 C33.2627747,112.88392 28.9887548,109.67061 28.2400256,111.667227 C27.4912869,113.66385 27.9592504,116.471597 33.3563665,121.338358 C38.7534731,126.20512 34.5106584,123.023005 32.6700239,123.085396 C30.8293894,123.147797 29.6127014,120.059274 27.8968543,120.184067 C26.181012,120.308849 24.9643193,120.090475 26.3681954,123.927727 C27.7720669,127.764974 29.0199553,128.950476 32.4828404,129.730406 C35.9457302,130.510331 40.9372794,129.605614 41.0620668,130.447939 C41.186859,131.29026 41.0620668,131.633432 37.5991812,132.07019 C34.1362961,132.506953 33.7619244,131.883006 33.9179122,133.130899 C34.0738953,134.378783 36.6008724,135.439483 36.4760803,136.09463 C36.3512929,136.749768 36.5073092,138.340823 35.5089719,138.309632 C34.5106584,138.278403 33.9179122,137.217731 33.5123496,137.841668 C33.1067869,138.465615 32.8572121,138.559207 32.1708695,136.500193 C31.4845363,134.441174 30.6110102,133.380474 28.7703804,132.444562 C26.9297412,131.508644 20.8462919,126.017936 19.8479831,126.548291 C18.8496743,127.078641 18.4129113,128.10815 19.1616405,130.416739 C19.9103792,132.725332 20.7838958,134.347583 22.4997429,135.470684 C24.21559,136.593785 25.2138988,137.560898 24.589957,137.685685 C23.9660105,137.810477 19.5984036,135.314701 19.2864327,136.06343 C18.9744617,136.812164 23.1236895,141.429345 22.6245351,141.803717 C22.1253807,142.178079 21.0022797,142.240476 18.0073486,139.713503 C15.0124175,137.186531 14.9500262,136.125831 13.0157999,136.718577 C11.0815737,137.311323 12.0798872,140.368645 10.9255858,141.054983 C9.77129395,141.741321 9.30333048,141.398155 8.67939341,142.334067 C8.05544686,143.269975 6.80755375,144.361881 7.18192548,144.58026 C7.55629246,144.798644 13.1405873,144.424277 14.7628427,144.954627 C16.3850933,145.484977 20.6279128,146.73287 20.9398884,147.388007 C21.2518546,148.043145 20.7527002,150.008571 21.6262263,150.44533 C22.4997429,150.882093 26.1498115,151.225259 26.8985503,150.663714 C27.6472795,150.102163 28.3336174,148.511108 30.4862275,148.167937 C32.6388282,147.82477 34.4170666,147.325616 34.8850301,146.888853 C35.3529841,146.45209 35.290588,146.108923 37.4743986,146.857624 C39.6581997,147.606358 40.6253133,147.419175 40.8436924,146.92002 C41.0620668,146.420866 40.7501007,140.930163 41.9667886,142.178051 C43.1834813,143.425935 45.0865072,144.736219 45.7416541,144.424248 C46.3967916,144.112272 47.0519291,140.992559 47.7694674,141.429317 C48.4870009,141.86608 48.2374214,143.113964 48.7365758,142.864384 C49.2357349,142.614809 50.5460146,141.242134 50.9203863,142.022063 C51.2947533,142.801993 50.8579903,145.266569 51.9810865,144.611427 C53.1041874,143.956285 54.352071,144.424248 55.1008097,145.266569 C55.849539,146.108895 58.7196779,142.614809 58.9068614,143.893893 C59.0940402,145.172977 58.8756325,147.45037 59.8427789,147.107204 C60.8098873,146.764032 63.5240479,145.547344 63.0560892,146.63925 C62.5881304,147.73115 61.4650342,147.69995 62.02658,148.79185 C62.5881304,149.883751 65.2086946,152.192344 65.8326411,152.098752 C66.456583,152.005165 66.4877786,151.942765 66.4877786,151.942765 C66.4877786,151.942765 68.4532053,146.982411 70.0130598,147.69995 C71.5729191,148.417488 72.7896118,148.479879 73.0391913,150.320514 C73.2887662,152.161148 71.7289069,151.100444 73.6007371,151.661994 C75.4725673,152.22354 78.1867279,151.506006 77.9059527,152.535511 C77.6251774,153.56502 77.0324313,153.097066 74.7862294,154.032979 C72.540037,154.968896 71.9472908,154.750512 71.3545447,155.592843 C70.7617985,156.435159 68.4843962,157.246289 67.3613047,158.088615 C66.2382038,158.930936 64.8967189,159.99164 63.2744636,160.21002 C61.6522177,160.428403 60.9970708,162.799388 59.9051702,163.45453 C58.8132697,164.109668 57.5653861,165.794319 57.3782026,166.387065 C57.1910191,166.979811 56.3486934,168.321292 57.4094315,168.75805 C58.4701316,169.194813 59.1876699,168.321292 60.8411162,169.3196 C62.4945719,170.317914 66.4878071,172.345727 69.4203469,172.064952 C72.3528819,171.784177 74.91105,168.851646 74.9734461,168.383683 C75.0358422,167.915729 76.2213344,165.763124 77.3756263,167.198191 C78.5299277,168.633262 77.5004185,169.912347 77.2196432,171.097839 C76.9388727,172.283336 75.753371,174.716716 75.9405592,176.432559 C76.1277427,178.148406 75.9405592,177.711648 75.5661922,177.680447 C75.1918252,177.649218 67.8916833,177.930022 65.8014692,177.056501 C63.7112599,176.182984 62.7441467,175.278262 61.1530918,175.403054 C59.5620369,175.527837 55.1320386,175.995801 54.8824591,176.838121 C54.6328842,177.680447 54.3833047,178.803548 53.5721746,178.429176 C52.7610493,178.054814 52.2306993,176.151784 50.296473,176.74453 C48.3622515,177.337276 46.9895662,178.429176 46.0536583,178.148406 C45.117736,177.867631 45.2113278,177.212493 44.1194273,177.742839 C43.0275267,178.273193 43.1211185,178.054814 42.9963263,178.834744 C42.8715436,179.614669 44.1818186,181.392917 43.4642898,180.924953 C42.7467515,180.456999 42.6843601,179.67707 42.0604136,179.895449 C41.4364718,180.113828 41.3740757,180.612982 41.1556965,181.205728 C40.9373126,181.798479 40.9373126,181.143337 41.0309044,180.145024 C41.1244961,179.146715 41.4988631,176.869322 40.53175,177.430868 C39.5646411,177.992423 38.5039315,176.806931 37.848794,179.302703 C37.1936518,181.798479 38.0671732,182.297634 37.5368184,182.172846 C37.0064731,182.048054 36.4449178,180.956154 35.5402008,180.394603 C34.635479,179.833053 31.5469609,179.614669 30.9230191,180.269816 C30.2990725,180.924953 28.3960467,182.765592 26.6801996,182.672001 C24.9643525,182.578409 23.8412563,182.484817 22.655764,181.080941 C21.4702717,179.67707 18.7873067,181.892071 18.5377319,182.235238 C18.2881523,182.578409 18.5689608,182.983972 17.7266066,183.108754 C16.8842856,183.233546 15.6987886,182.734392 16.7282931,185.54214 C17.7578023,188.349887 18.5377319,191.906364 21.7822379,192.592702 C25.0267486,193.27904 25.6506951,191.843973 26.9609701,190.440101 C28.2712545,189.036225 28.8328097,188.630663 30.5486473,189.254604 C32.2644944,189.878546 32.7948492,189.472983 33.5123875,188.75545 C34.2299164,188.037916 35.0722421,188.069112 40.4693587,189.223409 C45.8664748,190.377701 49.454152,190.408901 50.3588643,191.032847 C51.2635814,191.656789 53.1978124,192.467915 53.9465416,191.999956 C54.6952756,191.532002 56.5671057,190.596084 57.5342141,190.970447 C58.501332,191.344818 58.4077403,192.280731 58.1893611,192.811086 C57.9709772,193.341441 58.3765398,195.088479 59.1876699,195.494041 C59.9987999,195.899604 59.343653,197.085096 58.9068947,197.740239 C58.4701316,198.395381 56.2863305,198.426581 58.6573151,200.859957 C61.0282997,203.293342 59.5932325,205.00918 59.6244282,205.508339 C59.6556571,206.007494 59.1876699,207.692145 60.3731622,206.194682 C61.5586545,204.697214 62.6193593,208.097703 62.9937263,209.563975 C63.3680933,211.030238 63.9920399,212.21573 65.489503,211.279818 C66.9869615,210.3439 66.6125993,208.690454 68.1412629,208.097703 C69.6699265,207.504957 70.481047,207.536157 71.9161236,206.381861 C73.3511955,205.227564 75.5973879,204.260451 74.6926708,206.444257 C73.7879538,208.628058 71.604148,208.316087 70.8554187,209.470383 C70.1066848,210.624671 68.2036542,212.590093 67.8916833,214.399531 C67.5797076,216.20897 67.3613332,216.364953 67.8916833,216.9889 C68.4220381,217.612842 70.1066848,216.364953 68.7964003,217.768825 C67.4861159,219.172701 65.7390779,220.514181 66.5502079,221.200519 C67.3613332,221.886857 68.3908377,222.479603 70.1378804,222.04284 C71.8849232,221.606086 73.9127412,219.266293 74.8798543,218.735943 C75.8469627,218.205588 76.3461171,216.115378 80.620137,216.926504 C84.8941522,217.737634 84.2702104,217.488054 83.0223173,218.0808 C81.7744336,218.673547 82.117605,218.767138 80.24577,218.642351 C78.3739399,218.517563 78.0931646,219.235097 77.687602,219.609464 C77.2820393,219.983826 77.1260515,220.482985 75.5973879,220.888548 C74.0687243,221.294111 71.2921771,225.380947 71.2921771,225.692923 C71.2921771,226.004894 70.8554187,226.379261 72.6960485,227.315173 C74.5366878,228.251091 75.4726005,230.372501 74.2247121,230.902846 C72.9768237,231.433201 69.4827382,231.651585 69.4827382,232.181939 C69.4827382,232.712285 70.0754844,234.396936 69.2955547,234.428132 C68.5156251,234.459361 67.8604876,234.05377 67.5485167,235.457641 C67.2365411,236.861517 68.2348546,237.235879 66.331824,237.641447 C64.4287934,238.047009 62.7441467,239.482077 61.7770384,239.326094 C60.8099252,239.170101 59.312462,238.390176 57.4718228,240.230811 C55.631193,242.07144 54.6640752,241.759469 54.3521043,241.603486 C54.0401333,241.447503 53.1978124,241.977853 52.1994988,239.13891 C51.20119,236.299962 49.4229516,234.552924 48.7054133,235.395245 C47.9878798,236.237571 47.8630923,237.360672 47.7071045,239.326094 C47.5511214,241.291515 46.2720327,241.884262 47.4263293,242.445812 C48.5806259,243.007363 48.7366137,243.444126 48.0190754,244.723205 C47.3015419,246.002289 46.6775953,246.376656 46.8959792,247.218982 C47.1143584,248.061303 47.3327423,248.498066 47.0207666,249.589966 C46.7087957,250.681871 45.6792865,251.524192 47.7071045,251.836163 C49.7349225,252.148134 53.1354163,251.368205 54.0401333,251.118625 C54.9448504,250.86905 56.7854849,249.153203 59.8428074,250.120321 C62.9001346,251.087434 64.0232308,250.681871 64.8967522,250.713067 C65.7702783,250.744296 69.7635182,250.713067 70.4186557,250.338695 C71.0737932,249.964333 72.5400654,248.591657 73.4135868,249.745949 C74.2871082,250.900251 74.8798543,252.366518 77.5316189,252.023347 C80.1833787,251.68018 79.7778113,251.399405 81.7744336,251.212222 C83.7710512,251.025033 83.4278799,250.494688 84.0830269,249.933133 C84.7381643,249.371587 85.4557027,248.74764 88.5130251,249.745949 C91.5703523,250.744263 91.0399975,251.087434 92.6310524,251.711381 C94.2221121,252.335318 103.175705,259.510672 103.175705,259.510672 L115.486802,271.69169 Z" id="iceland" fill="#2E2E2C" sketch:type="MSShapeGroup"></path>
            <path d="M71.6180159,232.866113 L94.4998214,219.018379 C98.9142242,226.845179 102.92996,233.467079 112.562032,233.467079 C121.794843,233.467079 127.615851,229.855468 127.615851,215.807095 L127.615851,120.269476 L155.714139,120.269476 L155.714139,216.204575 C155.714139,245.307242 138.655121,258.55401 113.766337,258.55401 C91.2885377,258.55401 78.2411032,246.912587 71.6180159,232.86374" id="j" fill="#F3DF49" sketch:type="MSShapeGroup"></path>
            <path d="M170.97619,229.855349 L193.85503,216.608581 C199.877744,226.444139 207.705137,233.669379 221.553464,233.669379 C233.196073,233.669379 240.620054,227.84849 240.620054,219.819865 C240.620054,210.186014 232.993774,206.773617 220.148046,201.155502 L213.125105,198.142958 C192.852431,189.514079 179.40455,178.675923 179.40455,155.795304 C179.40455,134.721143 195.460968,118.663538 220.550272,118.663538 C238.413149,118.663538 251.258284,124.886179 260.489909,141.14371 L238.612482,155.192558 C233.79526,146.563085 228.578185,143.151282 220.550272,143.151282 C212.321246,143.151282 207.102391,148.369544 207.102391,155.192558 C207.102391,163.622696 212.321246,167.035093 224.362522,172.253948 L231.386649,175.264119 C255.271054,185.500716 268.718935,195.936647 268.718935,219.418232 C268.718935,244.708649 248.849079,258.556383 222.155617,258.556383 C196.063714,258.556383 179.20403,246.113474 170.97619,229.855349" id="s" fill="#F3DF49" sketch:type="MSShapeGroup"></path>
        </g>
    </g>
</svg>