<?xml version="1.0" encoding="UTF-8" standalone="no"?>
<svg width="1920px" height="1024px" viewBox="0 0 1920 1024" version="1.1" xmlns="http://www.w3.org/2000/svg" xmlns:xlink="http://www.w3.org/1999/xlink">
    <!-- Generator: Sketch 3.7.1 (28215) - http://www.bohemiancoding.com/sketch -->
    <title>js-logo-video</title>
    <desc>Created with Sketch.</desc>
    <defs>
        <ellipse id="path-1" cx="227" cy="227" rx="227" ry="227"></ellipse>
    </defs>
    <g id="Page-1" stroke="none" stroke-width="1" fill="none" fill-rule="evenodd">
        <rect id="Rectangle-2" fill="#000000" x="0" y="0" width="1920" height="1024"></rect>
        <g id="logo" transform="translate(733.000000, 285.000000)">
            <mask id="mask-2" fill="white">
                <use xlink:href="#path-1"></use>
            </mask>
            <use id="Oval-1" fill="#F3DF49" xlink:href="#path-1"></use>
            <rect id="background" fill="#F3DF49" mask="url(#mask-2)" x="-17.2310231" y="-38.9570957" width="560.382838" height="534.910891"></rect>
            <path d="M176.315133,381.586621 C176.315133,381.586621 193.586822,379.35802 208.072756,386.04383 C222.558689,392.729662 224.787282,393.843954 224.787282,393.843954 C224.787282,393.843954 235.373161,397.18687 252.087688,390.501038 C268.802238,383.815229 269.916546,386.600984 278.830926,373.229358 C287.745313,359.857739 292.759705,356.514831 308.359977,355.957684 C323.960219,355.40053 324.517373,355.957684 328.974611,353.17193 C333.431842,350.386175 355.160784,318.071407 367.418095,314.171344 C379.675406,310.27129 396.947109,310.27129 399.175725,306.928374 C401.40434,303.585458 405.304335,293.55674 411.433035,291.885286 C417.561736,290.213839 418.11889,293.55674 419.233108,282.41373 C420.347415,271.270704 428.147585,265.699188 428.147585,265.699188 C428.147585,265.699188 423.133192,262.356295 420.904569,260.127679 C418.675954,257.899078 415.33312,252.327562 415.33312,252.327562 C415.33312,252.327562 418.675954,253.44187 422.576038,257.341924 C426.476116,261.241979 424.2475,261.241979 428.147585,260.68484 C432.047662,260.127679 437.619119,259.570525 437.061965,256.227624 C436.504811,252.884716 436.504811,251.213262 440.404888,248.984661 C444.304973,246.756053 439.847734,247.313207 439.847734,247.313207 L437.061965,246.198907 C437.061965,246.198907 445.976442,247.313207 445.976442,244.527452 C445.976442,241.741698 435.809314,238.407233 435.809314,238.407233 C435.809314,238.407233 448.317696,240.475555 448.317696,237.422315 C448.317696,234.369082 446.643358,236.732872 444.969012,235.550981 C443.294583,234.369082 440.339852,231.709819 437.680633,230.724908 C435.021325,229.739991 425.960159,229.346022 433.839464,226.095809 C441.718776,222.845603 441.423264,231.414344 446.544819,230.921881 C451.666373,230.429426 452.946765,224.322969 453.143739,223.929008 C453.340712,223.535032 452.848324,223.830506 453.636224,223.239565 C454.424131,222.648615 452.848324,215.261766 452.848324,215.261766 C452.848324,215.261766 450.976915,219.89085 449.696523,219.201422 C448.416138,218.511979 448.810181,211.420596 448.810181,211.420596 C448.810181,211.420596 439.945899,210.829654 435.021325,211.716071 C430.096743,212.602502 446.150865,210.337199 446.938772,209.056807 C447.726769,207.77643 450.189008,205.215652 449.204135,203.639785 C448.219157,202.063926 448.219157,201.177502 445.067453,201.079008 C441.915749,200.980521 437.188148,201.177502 437.188148,201.177502 C437.188148,201.177502 442.703656,199.404662 442.999161,198.419744 C443.294583,197.434826 439.05946,196.351422 441.718776,195.268025 C444.377995,194.184621 445.165992,192.805742 445.559938,188.373631 C445.953892,183.941519 445.65838,184.040006 446.347846,182.759629 C447.037304,181.479236 446.840331,181.183762 445.362965,180.001863 C443.8856,178.819972 443.590088,176.259195 441.718776,177.244113 C439.847457,178.229016 437.976048,177.638082 436.498683,174.683336 C435.021325,171.728597 437.385121,170.645193 432.65752,171.137648 C427.930009,171.630103 424.876747,171.630103 418.967285,167.001011 C413.057831,162.371919 414.436657,161.091535 414.830611,158.629251 C415.224565,156.166961 415.618511,155.379031 414.535196,155.280544 C413.451777,155.18205 409.610615,157.939808 407.345252,158.235283 C405.079987,158.530757 403.602622,158.924726 400.549359,160.599072 C397.496187,162.273425 393.851998,163.750798 396.314244,159.712656 C398.776579,155.674505 394.048971,155.477532 397.102143,152.128818 C400.155406,148.780111 403.50409,144.938956 402.814722,140.900806 C402.125256,136.862663 399.465948,129.081853 397.496187,130.263743 C395.526336,131.445634 394.541366,135.18831 391.389662,133.809431 C388.237958,132.430552 389.124397,133.021494 386.859124,132.923007 C384.593769,132.824521 384.396789,132.332066 384.298347,130.263743 C384.199815,128.195421 385.086254,127.899954 382.919423,127.60448 C380.752599,127.309005 376.222069,127.309005 382.623919,123.270855 C389.025858,119.232712 388.730443,116.967417 388.730443,116.080986 C388.730443,115.194569 384.396789,111.451901 386.957566,109.186599 C389.518343,106.921288 391.094247,107.216771 394.442925,104.852981 C397.791609,102.489192 403.898134,99.5344387 401.337357,99.4359522 C398.776579,99.3374657 394.93541,100.322368 393.261071,99.7314268 C391.586635,99.1404776 390.700294,98.3525479 386.662061,101.602761 C382.623919,104.852981 386.169666,105.936386 381.836011,109.088105 C377.502454,112.239831 371.986856,112.141337 371.986856,112.141337 C371.986856,112.141337 373.858265,122.384439 371.395929,121.596501 C368.933683,120.808572 365.387936,116.474962 362.92569,116.474962 C360.463452,116.474962 358.296621,116.474962 358.198089,115.391557 C358.099648,114.308138 358.789016,113.126247 357.804136,112.929267 C356.819255,112.732286 354.652432,113.914185 356.917697,108.398669 C359.183059,102.883146 358.887547,102.095216 356.819255,99.9284149 C354.750873,97.7616062 348.545997,97.3676301 348.545997,97.3676301 C348.545997,97.3676301 349.136924,89.0943641 345.492734,88.2079479 C341.848545,87.3215166 341.750014,85.5486691 337.219476,88.7003955 C332.688758,91.8521145 334.75714,91.6551414 331.900851,91.0641847 C329.044562,90.473243 328.94612,88.7988895 326.18837,89.8822939 C323.430619,90.9656982 323.923007,90.9656982 323.923007,92.147589 C323.923007,93.3294949 325.991299,96.875175 325.991299,99.0419911 C325.991299,101.2088 326.18837,103.572589 327.17325,106.724315 C328.15813,109.876042 331.309924,115.293056 327.567204,119.528187 C323.824566,123.76331 315.748288,127.702966 312.891998,127.60448 C310.035709,127.505993 309.444782,120.316116 304.815675,121.00556 C300.186606,121.695003 299.103194,118.937238 296.837832,126.915036 C294.572566,134.892843 295.459005,129.771288 295.163493,131.544128 C294.868078,133.316976 293.587686,141.885724 287.38272,141.688736 C281.177753,141.491763 281.374726,139.324947 279.79883,135.483784 C278.223023,131.642622 273.298441,127.60448 269.063325,126.718056 C264.82821,125.831632 257.835336,123.369349 256.751924,125.536157 C255.668512,127.702966 256.35797,136.370208 257.244409,139.127966 C258.130751,141.885724 260.691528,143.757058 260.691528,147.696707 C260.691528,151.636363 262.661378,151.045421 262.365964,150.15899 C262.070452,149.272574 263.055332,148.780111 263.547817,150.355978 C264.040302,151.931837 266.207036,155.083556 266.305575,162.076452 C266.404017,169.069326 267.093475,172.910496 266.502548,173.20597 C265.911621,173.501445 262.365964,164.637215 261.676506,160.79606 C260.98704,156.95489 260.888598,155.18205 258.721775,153.803171 C256.554951,152.424293 258.130751,148.484636 254.191147,146.711796 C250.251446,144.938956 247.887739,144.348 247.887739,144.348 C247.887739,144.348 248.478666,131.839603 244.637496,129.869782 C240.796334,127.899954 245.03145,129.081853 242.372141,126.81655 C239.712922,124.55124 238.334043,127.505993 238.334043,127.505993 C238.334043,127.505993 239.515941,124.55124 237.84158,123.566337 C236.167234,122.581419 235.970246,121.498015 234.098912,124.748228 C232.227578,127.998441 231.932104,127.998441 231.932104,127.998441 C231.932104,127.998441 232.621539,123.073874 231.04568,123.369349 C229.46982,123.664823 226.318094,126.619562 225.727145,127.899954 C225.136203,129.180339 225.530164,133.710937 221.295034,133.809431 C217.05991,133.907925 212.135344,133.61245 211.938363,138.438523 C211.741375,143.264595 213.415729,141.590249 210.953445,143.363097 C208.491162,145.135929 208.195695,143.363097 210.165516,148.090683 C212.135344,152.818261 213.120254,152.522779 213.711211,157.939808 C214.302152,163.356837 213.021768,165.81912 210.559484,165.917607 C208.097194,166.016101 207.900221,163.750798 207.309264,164.538728 C206.718322,165.326658 203.271121,166.311576 202.680179,164.243254 C202.08923,162.174939 201.005818,154.591101 199.134484,153.310716 C197.26315,152.030331 195.096342,152.818261 194.209925,150.94692 C193.323494,149.075586 190.565744,142.969121 189.088371,139.127966 C187.611005,135.286804 186.035139,128.392409 181.898502,129.180339 C177.761865,129.968269 172.246349,130.657705 171.753894,136.764177 C171.261439,142.870634 176.875449,153.606198 176.776955,162.765881 C176.678461,171.925578 177.958853,177.835055 168.996136,179.312428 C160.033427,180.789793 163.579107,177.638082 162.791178,174.683336 C162.003263,171.728597 162.101749,168.675365 155.108861,176.456183 C148.11598,184.236994 147.918992,189.16156 148.411454,192.805742 C148.903909,196.449924 150.578263,203.14733 149.691839,203.245817 C148.805415,203.344318 145.358214,193.101217 144.767273,193.396691 C144.176324,193.692158 143.683868,192.313287 143.683868,195.268025 C143.683868,198.222764 143.683868,214.276848 142.797452,214.375349 C141.911021,214.473836 140.72913,213.784393 139.350251,205.806594 C137.971365,197.828803 137.47891,193.101217 136.100031,192.214785 C134.721159,191.328369 134.91814,190.73742 132.652837,191.919311 C130.387542,193.101217 130.09206,192.608754 132.849818,189.063074 C135.607575,185.517379 136.88796,179.312428 134.721159,178.524498 C132.554351,177.736568 129.895079,180.789793 129.895079,180.789793 C129.895079,180.789793 134.573422,176.160709 130.584515,175.175791 C126.595623,174.19088 121.572563,174.732579 120.636896,168.921596 C119.701228,163.110606 122.803704,167.542717 125.216744,168.576871 C127.629777,169.611039 130.683017,169.758769 132.111139,167.39498 C133.539261,165.031191 134.819646,163.849285 131.470946,162.224182 C128.122239,160.599072 130.978484,161.731727 132.554351,160.549829 C134.13021,159.367938 136.493999,157.102628 137.035698,153.35996 C137.577404,149.617291 138.759294,147.302745 135.70607,145.776129 C132.652837,144.249513 133.440767,145.579149 131.470946,144.39725 C129.501111,143.21536 130.92924,142.919877 128.368463,143.166109 C125.807693,143.412333 128.614694,142.230442 131.963401,141.491763 C135.312101,140.753069 136.690987,140.753069 134.524171,137.896817 C132.357363,135.04058 131.963401,138.241542 130.338291,137.74908 C128.713181,137.256632 126.152411,136.025483 127.826765,135.04058 C129.501111,134.055662 129.254887,132.676783 127.629777,131.691866 C126.004666,130.706955 124.675038,131.297897 124.478058,133.41547 C124.28107,135.533028 123.936359,136.665675 123.443897,136.468702 C122.951441,136.271714 124.675038,133.366219 122.655967,133.513956 C120.636896,133.661694 120.242927,132.873756 120.489158,131.839603 C120.735382,130.805449 120.686139,128.096935 120.14444,127.80146 C119.602734,127.505993 120.14444,126.964287 120.489158,126.225601 C120.833876,125.486907 120.735382,122.926144 118.568581,121.596501 C116.401772,120.266873 115.712329,120.759328 113.939482,118.7895 C112.166641,116.819672 110.787755,118.543276 110.787755,118.543276 C110.787755,118.543276 113.250046,116.179487 112.511359,114.997581 C111.772673,113.81569 110.738519,113.175498 109.261146,113.027761 C107.783773,112.880023 107.389812,110.910195 106.89735,112.092094 C106.404895,113.273985 104.287337,114.899095 104.385823,113.323235 C104.48431,111.747376 104.976772,111.20567 103.203932,111.895113 C101.431085,112.584541 102.317501,110.073015 102.612976,107.80772 C102.90845,105.542417 103.647144,105.296193 102.071277,105.000719 C100.495418,104.705244 101.234097,104.409762 101.283347,103.720326 C101.332643,103.030883 99.8552253,102.095216 99.6582373,101.307286 C99.4612567,100.519357 99.1657821,100.814831 98.2301151,100.125395 C97.2944481,99.4359522 97.836154,97.9093435 96.8019854,97.3676301 C95.7678319,96.8259392 94.1919724,94.4621425 93.6502665,96.4319631 C93.1085606,98.4017986 91.3849638,94.659123 90.3015595,93.9696873 C89.2181552,93.2802441 87.5438017,91.0641847 87.0513465,93.5264754 C86.5588914,95.9887587 85.9679422,95.2500722 85.278499,96.1857392 C84.5890633,97.1214063 83.4564157,96.6289511 81.5358309,94.6098798 C79.615246,92.5908084 76.3157898,89.7345566 75.4293735,91.6058906 C74.5429498,93.4772247 74.5429498,93.82195 71.4897174,94.1174246 C68.436485,94.4128917 66.6143942,93.9696873 68.1410104,96.6782019 C69.6676341,99.3867015 70.7017876,101.159549 69.4213953,101.799749 C68.1410104,102.439941 66.6143942,101.799749 65.5802406,101.553525 C64.5460795,101.307286 62.773232,101.898235 65.5309449,104.015801 C68.2886952,106.133359 70.110786,107.167527 72.2283514,106.872053 C74.3459168,106.576578 79.0734952,101.996729 79.3197265,102.489192 C79.5659503,102.981647 76.8574508,105.39468 78.4333102,105.837884 C80.0091697,106.281103 80.5508681,106.133359 81.3387979,105.542417 C82.1267276,104.951468 84.1950497,103.720326 83.8503244,105.985621 C83.5056065,108.250932 83.4071125,108.644893 86.0663838,108.841873 C88.7256476,109.038861 90.7447189,107.462994 90.7447189,108.300175 C90.7447189,109.137348 87.9869611,111.156427 88.6763968,111.402651 C89.36584,111.648874 94.1919124,110.910195 93.3054962,111.599639 C92.4190799,112.289074 90.1537697,112.97851 89.7598011,113.470973 C89.36584,113.963428 88.5286595,115.588531 88.2824357,114.800601 C88.0362044,114.012671 80.99408,111.057933 78.5810475,111.304164 C76.1680076,111.550388 74.8876152,112.83078 73.7057243,112.97851 C72.523826,113.126247 70.5047546,114.751358 72.2283514,116.967417 C73.9519482,119.183461 77.6453805,122.482925 81.3387979,124.009549 C85.0322227,125.536157 81.929747,126.668813 83.8995751,126.274844 C85.8693957,125.880883 85.2292033,127.112017 86.4111016,127.80146 C87.5929925,128.490896 89.1688594,129.820532 90.5969816,129.771288 C92.0251038,129.721993 93.7487081,129.278826 91.9758605,130.608461 C90.2030205,131.938089 90.1537697,134.794341 91.1879308,135.089816 C92.2220919,135.38529 94.9798422,143.658564 94.1426767,146.317835 C93.3054962,148.977099 89.9567892,155.96998 90.8924562,152.030331 C91.8281232,148.090683 92.3698291,142.328928 90.0060324,142.624403 C87.6422432,142.919877 85.9678972,146.170098 86.2141211,144.052525 C86.4603449,141.934967 83.2593827,131.79036 80.3538801,132.873756 C77.4483924,133.957161 77.4483924,143.018371 77.1529179,140.556096 C76.8574508,138.093805 76.8574508,135.286804 74.4444033,138.340036 C72.0313633,141.393261 75.6755449,135.779259 74.3459168,134.498867 C73.0162811,133.218482 71.3419351,133.957161 70.4062681,134.745098 C69.4705936,135.533028 71.1941978,132.923007 70.8987157,131.19941 C70.6032412,129.475814 70.84942,125.930126 67.9932206,127.407492 C65.1369763,128.884864 66.9590671,126.225601 64.7430152,123.270855 C62.5269557,120.316116 58.193331,115.736268 54.3521756,116.37646 C50.5110059,117.016653 46.8175886,117.95232 47.9994794,120.41461 C49.1813778,122.876894 55.5833172,122.876894 49.2798643,122.18745 C42.9764189,121.498015 44.109074,124.255773 46.0296588,126.619562 C47.9502287,128.983351 55.6818037,134.548117 51.1019551,132.726027 C46.522114,130.903936 39.7754492,125.831632 38.5935584,128.983351 C37.4116525,132.135077 38.1503465,136.567189 46.6698513,144.249513 C55.1893411,151.931837 48.4919346,146.908777 45.5864395,147.007263 C42.6809443,147.105765 40.760367,142.230442 38.0518525,142.42743 C35.3433454,142.624403 33.4227606,142.279692 35.63882,148.336907 C37.8548719,154.394113 39.8247,156.265462 45.2909649,157.496604 C50.7572372,158.727738 58.6365428,157.299616 58.8335234,158.629251 C59.0305115,159.95888 58.8335234,160.500585 53.3672578,161.190021 C47.9009929,161.879464 47.3100362,160.894547 47.5562675,162.864382 C47.8024914,164.834203 51.7913983,166.508549 51.5944102,167.542717 C51.3974297,168.576871 51.643706,171.088397 50.0678015,171.039162 C48.4919346,170.989866 47.5562675,169.315565 46.9160751,170.300468 C46.2758827,171.285385 45.8819215,171.433123 44.7985097,168.18291 C43.7151129,164.932689 42.3362265,163.258343 39.4307389,161.780978 C36.5252363,160.303605 26.9223346,151.636363 25.3464752,152.473543 C23.7706157,153.310716 23.0811725,154.935827 24.2630633,158.580001 C25.4449692,162.224182 26.8238406,164.784952 29.5323552,166.557799 C32.2408697,168.330647 33.8167292,169.857263 32.8318189,170.054244 C31.8469011,170.251232 24.9525066,166.311576 24.4600514,167.493467 C23.9675963,168.675365 30.517273,175.963721 29.7293432,176.554677 C28.9414135,177.145619 27.168566,177.244113 22.44098,173.255213 C17.7133941,169.266314 17.6149076,167.591968 14.5616752,168.527635 C11.5084428,169.463302 13.0843098,174.289375 11.2622115,175.372779 C9.44012817,176.456183 8.70143421,175.914485 7.7165314,177.39185 C6.73161361,178.869208 4.76177804,180.592812 5.3527347,180.93753 C5.94368388,181.282256 14.7586558,180.691306 17.319433,181.528479 C19.8802028,182.365652 26.5776168,184.335488 27.0700794,185.369642 C27.5625271,186.403795 26.7745973,189.506278 28.1534837,190.195714 C29.5323552,190.885157 35.2940946,191.426856 36.4760005,190.540439 C37.6578913,189.654016 38.7412957,187.142489 42.1392534,186.600783 C45.5371962,186.059085 48.3441973,185.271155 49.0828912,184.581712 C49.8215702,183.892269 49.7230762,183.35057 53.1702847,184.532416 C56.6174782,185.714314 58.1440952,185.41884 58.488813,184.63091 C58.8335234,183.84298 58.3410757,175.175746 60.2616531,177.145574 C62.1822379,179.115395 65.1862195,181.183717 66.2203881,180.691261 C67.2545417,180.198799 68.2886952,175.27424 69.4213503,175.963676 C70.5539979,176.653119 70.1600293,178.622939 70.947959,178.228971 C71.7358962,177.83501 73.8042109,175.668201 74.3951675,176.899343 C74.9861167,178.130484 74.2966735,182.02089 76.0695135,180.986729 C77.8423611,179.952568 79.8121817,180.691261 80.9940875,182.02089 C82.1759784,183.350525 86.7065762,177.83501 87.0020508,179.854081 C87.2975179,181.873152 86.9527551,185.468083 88.4794237,184.926385 C90.0060324,184.384679 94.290414,182.464102 93.5517275,184.187706 C92.813041,185.911303 91.040201,185.862052 91.9266173,187.585649 C92.813041,189.309245 96.9496778,192.953427 97.9345956,192.80569 C98.9195058,192.65796 98.9687491,192.559458 98.9687491,192.559458 C98.9687491,192.559458 102.071232,184.729397 104.533508,185.862052 C106.995791,186.994707 108.916376,187.093193 109.310345,189.998689 C109.704306,192.904184 107.242023,191.22983 110.196761,192.116254 C113.151499,193.00267 117.435881,191.870023 116.992669,193.495125 C116.549457,195.120236 115.61379,194.381557 112.068095,195.858922 C108.522415,197.336295 107.586748,196.99157 106.651081,198.321213 C105.715414,199.650833 102.120468,200.931226 100.347636,202.260861 C98.574788,203.59049 96.4572151,205.264843 93.8964379,205.609561 C91.3356756,205.954286 90.301507,209.696954 88.5779103,210.731115 C86.8543135,211.765269 84.8844929,214.42454 84.5890183,215.360207 C84.2935437,216.295874 82.9639081,218.41344 84.638314,219.102875 C86.31266,219.792319 87.4453151,218.41344 90.0553282,219.989299 C92.6653562,221.565166 98.9687941,224.766128 103.597893,224.322917 C108.226985,223.879705 112.265128,219.25062 112.363622,218.511926 C112.462116,217.773247 114.33345,214.375297 116.155533,216.640592 C117.977632,218.905895 116.352521,220.924966 115.90931,222.7963 C115.466105,224.667642 113.594756,228.508804 113.890238,231.217311 C114.185713,233.925826 113.890238,233.23639 113.299289,233.187139 C112.70834,233.137843 101.184853,233.5811 97.8853897,232.202221 C94.5859335,230.82335 93.0593173,229.39522 90.5477908,229.592208 C88.0362643,229.789181 81.0433832,230.527875 80.6494146,231.857503 C80.2554535,233.187139 79.8614849,234.959987 78.5810925,234.36903 C77.3007076,233.778088 76.4635346,230.774099 73.4103022,231.709766 C70.3570773,232.645433 68.1902536,234.36903 66.7128957,233.925826 C65.2355153,233.482614 65.3832525,232.44846 63.6596558,233.285626 C61.936059,234.122806 62.0837963,233.778088 61.8868083,235.00923 C61.6898352,236.240364 63.7581423,239.04738 62.6255022,238.308686 C61.4928471,237.570007 61.3943606,236.338866 60.4094428,236.683583 C59.4245325,237.028301 59.3260385,237.816231 58.9813206,238.751898 C58.6365953,239.687573 58.6365953,238.653412 58.7843326,237.077545 C58.9320699,235.501685 59.523019,231.906754 57.9964028,232.793171 C56.4697934,233.679602 54.7954324,231.808268 53.7612788,235.747916 C52.7271178,239.687573 54.1059967,240.475502 53.2688162,240.278522 C52.4316507,240.081534 51.5452194,238.357937 50.1170972,237.471513 C48.6889676,236.585089 43.8136519,236.240364 42.8287416,237.274533 C41.8438238,238.308686 38.8398421,241.214189 36.1313276,241.066451 C33.422813,240.918714 31.649973,240.770977 29.7786389,238.554917 C27.9073049,236.338866 23.6721666,239.83531 23.2782055,240.377008 C22.8842369,240.918714 23.3275012,241.558907 21.9978206,241.75588 C20.6681925,241.952868 18.7968509,241.164938 20.4219536,245.597049 C22.0470639,250.029161 23.2782055,255.643163 28.3997525,256.726567 C33.521307,257.809971 34.5062248,255.544676 36.574532,253.328624 C38.6428541,251.112565 39.5292853,250.472373 42.2377849,251.457283 C44.9462995,252.442193 45.78348,251.802001 46.916135,250.669353 C48.0487751,249.536706 49.3784108,249.585949 57.8979163,251.40804 C66.4174211,253.230123 72.080674,253.279374 73.5087887,254.264291 C74.9369109,255.249202 77.9901508,256.529587 79.1720417,255.7909 C80.35394,255.052221 83.3086784,253.574848 84.8352871,254.16579 C86.3619108,254.756747 86.2141735,256.234112 85.8694556,257.071293 C85.5247303,257.908473 86.1649227,260.666223 87.4453151,261.306416 C88.7257075,261.946608 87.691539,263.817942 87.0021032,264.852103 C86.31266,265.886264 82.8654665,265.935515 86.6081346,269.77667 C90.3508027,273.617839 88.0855076,276.326339 88.1347508,277.114276 C88.1840465,277.902206 87.4453151,280.561477 89.3166492,278.197688 C91.1879832,275.833891 92.8623367,281.201662 93.4532859,283.516216 C94.0442351,285.830754 95.0291529,287.702088 97.3929421,286.224723 C99.7567238,284.74735 99.1657821,282.137337 101.578822,281.201662 C103.991862,280.265995 105.272239,280.315246 107.53755,278.493155 C109.802852,276.671064 113.348532,275.144448 111.92041,278.591649 C110.492288,282.038843 107.045087,281.546388 105.863196,283.368478 C104.681298,285.190554 101.677309,288.29303 101.184853,291.149282 C100.692391,294.005534 100.34768,294.251757 101.184853,295.236675 C102.022034,296.221585 104.681298,294.251757 102.612976,296.467809 C100.544654,298.683869 97.7869032,300.801434 99.0672956,301.884838 C100.34768,302.968243 101.972783,303.90391 104.730541,303.214467 C107.488299,302.525038 110.689269,298.831606 112.215885,297.994433 C113.742493,297.157252 114.530423,293.857796 121.277088,295.138181 C128.023745,296.418573 127.038835,296.024605 125.068999,296.960272 C123.099179,297.895939 123.640885,298.043676 120.686139,297.846696 C117.7314,297.649715 117.288189,298.782363 116.647996,299.373312 C116.007804,299.964254 115.761572,300.752191 113.348532,301.392383 C110.935492,302.032576 106.552632,308.483766 106.552632,308.976228 C106.552632,309.468684 105.863196,310.059633 108.768684,311.536998 C111.674186,313.014371 113.151552,316.363078 111.181724,317.200244 C109.211896,318.037424 103.69638,318.38215 103.69638,319.21933 C103.69638,320.056496 104.632047,322.715767 103.400905,322.76501 C102.169764,322.814306 101.13561,322.174068 100.643155,324.39012 C100.150692,326.60618 101.726559,327.197121 98.7225702,327.837321 C95.7185811,328.477514 93.0593173,330.742809 91.5327086,330.496585 C90.0060924,330.250346 87.6423032,329.019212 84.7368006,331.924707 C81.8313129,334.830195 80.3046892,334.33774 79.8122341,334.091516 C79.319779,333.845292 77.9901508,334.682465 76.4142838,330.201111 C74.8384244,325.719748 72.0314233,322.961998 70.8987682,324.291626 C69.7661206,325.621262 69.56914,327.394109 69.3229087,330.496585 C69.0766849,333.599061 67.057606,334.534728 68.8796968,335.421152 C70.7017876,336.307575 70.948019,336.997019 69.8153639,339.016082 C68.6827163,341.035154 67.6977985,341.626103 68.0425238,342.955739 C68.3872417,344.285367 68.731967,344.97481 68.2395044,346.698407 C67.7470492,348.422011 66.121939,349.751639 69.3229087,350.244094 C72.5238784,350.736549 77.8916568,349.505408 79.319779,349.111439 C80.7479011,348.717478 83.6533962,346.008964 88.4794687,347.535587 C93.3055486,349.062203 95.0783887,348.422011 96.4572676,348.471254 C97.836154,348.52055 104.139599,348.471254 105.173753,347.880298 C106.207906,347.289356 108.52246,345.122547 109.901339,346.944631 C111.280218,348.766729 112.215885,351.081275 116.401772,350.539569 C120.587652,349.99787 119.947452,349.554659 123.099179,349.259184 C126.250898,348.963702 125.709192,348.126536 126.74336,347.240105 C127.777514,346.353689 128.910169,345.368771 133.736241,346.944631 C138.562321,348.520498 137.725141,349.062203 140.236667,350.047121 C142.748201,351.032024 156.881708,362.35853 156.881708,362.35853 L176.315133,381.586621 Z" id="iceland" fill="#2E2E2C" mask="url(#mask-2)"></path>
            <path d="M107.132013,320.080301 L143.251609,298.22125 C150.219872,310.576081 156.558828,321.028944 171.763333,321.028944 C186.337595,321.028944 195.526225,315.32791 195.526225,293.152145 L195.526225,142.343234 L239.88019,142.343234 L239.88019,293.779579 C239.88019,339.718985 212.952034,360.629394 173.664365,360.629394 C138.182504,360.629394 117.586749,342.253069 107.132013,320.076555" id="j" fill="#F3DF49" mask="url(#mask-2)"></path>
            <path d="M263.709571,315.615219 L299.824484,294.70481 C309.331514,310.230524 321.687281,321.635776 343.547269,321.635776 C361.925466,321.635776 373.644435,312.447333 373.644435,299.773915 C373.644435,284.566601 361.60613,279.180033 341.328775,270.311675 L330.242859,265.556287 C298.241852,251.935351 277.013981,234.827005 277.013981,198.709282 C277.013981,165.443106 302.359505,140.09571 341.9637,140.09571 C370.160771,140.09571 390.437191,149.918329 405.009579,175.581316 L370.475425,197.75783 C362.8713,184.135957 354.635994,178.750326 341.9637,178.750326 C328.973944,178.750326 320.735829,186.987504 320.735829,197.75783 C320.735829,211.06505 328.973944,216.451617 347.981448,224.689732 L359.069237,229.441374 C396.771465,245.60014 417.999336,262.07356 417.999336,299.139926 C417.999336,339.061584 386.634191,360.920635 344.497785,360.920635 C303.310957,360.920635 276.697455,341.279142 263.709571,315.615219" id="s" fill="#F3DF49" mask="url(#mask-2)"></path>
        </g>
    </g>
</svg>